<svg width="72" height="72" viewBox="0 0 72 72" fill="none" xmlns="http://www.w3.org/2000/svg">
<path fill-rule="evenodd" clip-rule="evenodd" d="M56.4 20.0653C59.3823 20.0653 61.8 17.6873 61.8 14.7539C61.8 11.8204 59.3823 9.44238 56.4 9.44238C53.4177 9.44238 51 11.8204 51 14.7539C51 17.6873 53.4177 20.0653 56.4 20.0653Z" fill="#00FFFF"/>
<path fill-rule="evenodd" clip-rule="evenodd" d="M16.2003 20.0653C19.1826 20.0653 21.6003 17.6873 21.6003 14.7539C21.6003 11.8204 19.1826 9.44238 16.2003 9.44238C13.218 9.44238 10.8003 11.8204 10.8003 14.7539C10.8003 17.6873 13.218 20.0653 16.2003 20.0653Z" fill="#00FFFF"/>
<path fill-rule="evenodd" clip-rule="evenodd" d="M16.2003 62.5575C19.1826 62.5575 21.6003 60.1795 21.6003 57.246C21.6003 54.3126 19.1826 51.9346 16.2003 51.9346C13.218 51.9346 10.8003 54.3126 10.8003 57.246C10.8003 60.1795 13.218 62.5575 16.2003 62.5575Z" fill="#00FFFF"/>
<path fill-rule="evenodd" clip-rule="evenodd" d="M56.4 62.5575C59.3823 62.5575 61.8 60.1795 61.8 57.246C61.8 54.3126 59.3823 51.9346 56.4 51.9346C53.4177 51.9346 51 54.3126 51 57.246C51 60.1795 53.4177 62.5575 56.4 62.5575Z" fill="#00FFFF"/>
<rect y="32.459" width="72" height="7.08197" rx="3.54098" fill="#525252"/>
<rect x="39.6001" y="42.4917" width="29.5082" height="7.2" rx="3.6" transform="rotate(90 39.6001 42.4917)" fill="#525252"/>
<rect x="39.6001" width="29.5082" height="7.2" rx="3.6" transform="rotate(90 39.6001 0)" fill="#525252"/>
</svg>
